<?xml version="1.0" standalone="no"?>
<!DOCTYPE svg PUBLIC "-//W3C//DTD SVG 20010904//EN"
 "http://www.w3.org/TR/2001/REC-SVG-20010904/DTD/svg10.dtd">
<svg version="1.0" xmlns="http://www.w3.org/2000/svg"
 width="300.000000pt" height="181.000000pt" viewBox="0 0 300.000000 181.000000"
 preserveAspectRatio="xMidYMid meet">
<metadata>
Created by potrace 1.10, written by Peter Selinger 2001-2011
</metadata>
<g transform="translate(0.000000,181.000000) scale(0.100000,-0.100000)"
fill="#000000" stroke="none">
<path d="M2905 1657 c-356 -444 -646 -771 -709 -801 -50 -24 -230 -36 -532
-36 -318 0 -292 9 -413 -134 -42 -48 -87 -94 -101 -102 -20 -11 -119 -13 -496
-14 -476 0 -654 -6 -654 -21 0 -11 1045 -10 1120 0 51 8 58 12 110 72 30 35
78 87 106 116 l51 53 264 0 c273 0 457 11 528 30 70 19 215 170 537 560 242
293 285 350 282 370 -2 14 -26 -10 -93 -93z"/>
<path d="M2868 1420 c-343 -422 -539 -639 -600 -664 -57 -24 -231 -36 -527
-36 l-275 0 -36 -25 c-21 -14 -60 -54 -88 -88 -28 -34 -67 -78 -87 -97 l-36
-35 -604 -6 c-332 -3 -607 -8 -611 -12 -4 -4 -5 -9 -2 -12 3 -3 280 -2 616 2
l611 8 41 40 c23 22 65 68 93 103 86 105 59 99 467 105 377 5 419 10 484 55
51 35 186 185 421 467 260 313 267 322 263 338 -2 7 -60 -57 -130 -143z"/>
<path d="M2863 1277 c-283 -349 -484 -571 -542 -601 -53 -28 -170 -38 -498
-41 -270 -3 -326 -6 -345 -19 -13 -8 -57 -54 -98 -102 -120 -140 -30 -124
-753 -131 -394 -4 -627 -10 -627 -16 0 -6 224 -7 628 -2 717 8 650 -2 739 107
28 35 70 81 93 103 l41 40 367 6 c202 4 384 11 404 17 54 14 96 43 164 114
198 206 597 694 562 688 -2 -1 -62 -74 -135 -163z"/>
<path d="M2907 1207 c-175 -214 -364 -433 -452 -523 -78 -79 -97 -93 -140
-103 -71 -18 -413 -32 -590 -25 -186 8 -197 4 -291 -102 -38 -43 -83 -92 -100
-109 l-32 -32 -338 -6 c-187 -4 -480 -7 -651 -7 -190 0 -313 -4 -313 -9 0 -6
240 -8 638 -4 536 5 642 8 670 20 18 9 61 50 97 93 36 43 81 92 100 109 l36
31 277 0 c325 0 478 12 540 41 48 24 174 156 366 382 195 232 278 336 274 345
-1 5 -43 -41 -91 -101z"/>
<path d="M2828 982 c-212 -253 -359 -415 -401 -441 -61 -38 -120 -44 -487 -50
-412 -7 -367 6 -482 -133 -106 -128 -62 -118 -508 -119 -212 -1 -513 -5 -670
-9 -193 -5 -66 -7 390 -4 778 5 680 -11 802 130 110 126 111 127 293 121 169
-6 540 8 598 22 61 15 110 55 230 190 153 172 411 481 405 486 -2 3 -79 -84
-170 -193z"/>
<path d="M2875 912 c-196 -237 -363 -420 -409 -447 -63 -37 -158 -46 -508 -49
-370 -4 -338 5 -451 -126 -117 -136 -19 -120 -815 -127 -381 -4 -692 -9 -692
-12 0 -3 312 -3 694 0 624 5 696 7 719 22 14 9 57 54 96 101 114 136 86 126
355 126 258 0 493 13 556 30 56 15 153 109 350 340 173 202 235 279 229 283
-2 2 -58 -62 -124 -141z"/>
</g>
</svg>
