<?xml version="1.0" standalone="no"?>
<!DOCTYPE svg PUBLIC "-//W3C//DTD SVG 20010904//EN"
 "http://www.w3.org/TR/2001/REC-SVG-20010904/DTD/svg10.dtd">
<svg version="1.0" xmlns="http://www.w3.org/2000/svg"
 width="1724.000000pt" height="1040.000000pt" viewBox="0 0 1724.000000 1040.000000"
 preserveAspectRatio="xMidYMid meet">

<g transform="translate(0.000000,1040.000000) scale(0.100000,-0.100000)"
fill="#000000" stroke="none">
<path d="M17110 10032 c-771 -968 -2137 -2625 -2804 -3402 -847 -986 -1401
-1568 -1557 -1634 -19 -8 -46 -28 -62 -45 -86 -93 -496 -165 -1162 -206 -453
-27 -935 -35 -2200 -35 l-1250 0 -82 -29 c-217 -75 -398 -241 -784 -716 -294
-362 -430 -507 -554 -590 -120 -79 -65 -74 -928 -85 -425 -5 -1296 -14 -1937
-20 -641 -6 -1640 -15 -2220 -20 -580 -5 -1171 -10 -1312 -10 l-258 0 0 -80 0
-80 263 0 c144 0 735 5 1312 10 578 5 1572 14 2210 20 2099 19 2715 29 2771
44 199 53 362 200 749 676 365 448 525 605 701 688 l59 27 1470 6 c891 4 1563
11 1705 18 924 46 1360 115 1532 244 24 18 75 53 113 79 408 274 1848 1938
4193 4844 l163 202 -3 126 -3 125 -125 -157z"/>
<path d="M17035 8823 c-1002 -1242 -2118 -2577 -2749 -3293 -561 -634 -994
-1069 -1106 -1112 -14 -5 -35 -20 -48 -34 -123 -131 -725 -213 -1787 -244
-192 -5 -908 -10 -1590 -10 -1383 0 -1294 4 -1433 -70 -194 -105 -333 -246
-763 -775 -179 -220 -377 -425 -468 -483 -134 -87 -72 -81 -969 -92 -1075 -13
-2624 -27 -4337 -40 -781 -6 -1502 -13 -1602 -16 l-183 -6 0 -54 0 -53 302 4
c167 3 875 10 1573 15 1751 14 3323 29 4260 40 872 11 839 8 963 77 148 82
286 220 590 593 378 462 529 614 697 698 33 17 80 35 105 41 30 7 535 12 1505
15 1384 4 1606 8 2045 36 636 42 1027 119 1150 227 19 17 49 37 65 46 310 162
1681 1727 3743 4270 l242 298 0 85 c0 46 -1 84 -3 84 -1 0 -92 -111 -202 -247z"/>
<path d="M17185 8209 c-214 -273 -1364 -1666 -1869 -2264 -1017 -1203 -1688
-1922 -1882 -2016 -24 -11 -44 -25 -44 -30 0 -18 -79 -61 -167 -89 -427 -137
-1352 -185 -3458 -178 l-1040 3 -80 -32 c-94 -38 -160 -81 -274 -177 -110 -93
-226 -221 -495 -551 -320 -393 -498 -565 -648 -627 -51 -21 -70 -22 -543 -29
-269 -4 -1275 -15 -2235 -24 -960 -8 -2224 -20 -2810 -25 -586 -5 -1194 -10
-1352 -10 l-288 0 0 -40 0 -40 288 0 c158 0 766 5 1352 10 586 5 1848 17 2805
25 957 9 1965 20 2240 24 572 9 546 5 700 106 142 94 251 209 590 625 325 398
514 578 687 653 l73 32 1370 0 c1371 1 1605 5 2160 40 648 41 1040 118 1165
228 14 13 57 44 95 69 355 236 1582 1636 3498 3990 l218 267 -3 62 -3 62 -50
-64z"/>
<path d="M17014 7293 c-1455 -1784 -2442 -2932 -2999 -3488 -222 -223 -326
-313 -391 -341 -17 -7 -34 -20 -37 -28 -9 -24 -146 -85 -251 -111 -185 -47
-553 -91 -946 -115 -505 -30 -772 -34 -2095 -35 -1308 0 -1372 -1 -1420 -19
-210 -78 -387 -235 -705 -626 -421 -517 -541 -640 -709 -723 l-84 -42 -521 -7
c-650 -9 -3288 -34 -5318 -50 l-1538 -12 0 -28 0 -28 368 0 c358 0 893 4 4222
35 2491 23 2721 26 2780 37 138 25 311 151 492 356 57 64 193 227 303 362 381
467 577 638 779 680 46 9 287 11 1065 5 1498 -10 2322 13 2921 81 311 35 561
97 648 160 26 19 60 42 75 51 16 10 57 39 90 64 370 276 1426 1474 3100 3518
387 472 397 486 397 528 0 24 -2 43 -4 43 -2 0 -102 -120 -222 -267z"/>
<path d="M16985 6500 c-137 -168 -441 -534 -675 -815 -984 -1180 -1558 -1834
-1990 -2265 -216 -216 -320 -307 -385 -336 -16 -7 -40 -24 -53 -38 -88 -95
-451 -168 -1047 -211 -468 -33 -697 -38 -2150 -44 l-1480 -6 -71 -31 c-210
-91 -371 -250 -844 -835 -159 -196 -352 -392 -448 -454 -140 -90 -79 -84 -964
-95 -431 -5 -1557 -17 -2503 -25 -946 -8 -2217 -20 -2825 -25 -608 -5 -1205
-10 -1327 -10 -216 0 -223 -1 -223 -20 0 -19 7 -20 223 -20 122 0 719 5 1327
10 608 5 1879 17 2825 25 946 8 2072 20 2503 25 739 9 785 11 841 30 184 62
334 203 706 661 364 450 549 627 732 701 l58 23 1475 6 c1609 7 1902 15 2436
69 414 42 693 110 779 190 11 10 54 41 95 68 316 207 1332 1347 2885 3237 180
220 335 407 342 417 8 9 13 29 11 44 -3 25 -30 -5 -253 -276z"/>
<path d="M17140 5943 c-153 -189 -775 -936 -1009 -1213 -725 -857 -1198 -1388
-1550 -1741 -201 -200 -304 -291 -377 -328 -23 -12 -50 -31 -60 -42 -80 -88
-410 -161 -919 -203 -542 -45 -1004 -56 -2476 -56 -1213 0 -1249 -1 -1310 -20
-198 -61 -374 -220 -737 -665 -393 -482 -517 -605 -682 -684 l-74 -35 -231 -7
c-126 -4 -770 -13 -1430 -19 -660 -6 -1639 -15 -2175 -20 -536 -5 -1679 -15
-2540 -21 -861 -7 -1567 -14 -1569 -16 -2 -1 -1 -6 2 -10 7 -6 1893 6 4107 27
536 5 1515 14 2175 20 660 6 1306 15 1435 19 l235 7 75 37 c41 19 112 65 156
101 125 100 210 196 604 677 146 178 353 392 440 456 75 54 163 100 224 118
43 12 290 15 1521 18 870 3 1558 9 1685 16 913 47 1338 115 1495 240 22 17 68
50 102 72 230 148 914 891 1904 2064 804 953 1108 1328 1077 1325 -2 0 -46
-53 -98 -117z"/>
</g>
</svg>
