<svg width="1920" height="1080" xmlns="http://www.w3.org/2000/svg" preserveAspectRatio="xMidYMid meet" version="1.0">

 <g>
  <title>Layer 1</title>
  <path transform="rotate(0.00875901 960.462 553.296)" fill-opacity="0" fill="#000000" stroke="null" id="svg_3" d="m1899.91465,202.41454c-111.86357,144.42251 -236.45413,299.65927 -306.89915,382.91733c-62.6302,73.72292 -110.97044,124.30569 -123.47416,129.30582c-1.56296,0.58141 -3.90741,2.32564 -5.35873,3.9536c-13.73176,15.23297 -80.93921,24.76811 -199.50119,28.37286c-21.43493,0.58141 -101.36938,1.16282 -177.50805,1.16282c-154.39852,0 -144.46253,-0.46513 -159.98053,8.13976c-21.65822,12.20963 -37.17622,28.60542 -85.18154,90.11872c-19.98361,25.58209 -42.08839,49.41994 -52.24765,56.16431c-14.9598,10.11655 -8.0381,9.41886 -108.17944,10.69796c-120.01331,1.51167 -292.94411,3.13962 -484.18392,4.65129c-87.19106,0.69769 -167.68371,1.51167 -178.84774,1.86052l-20.43017,0.69769l0,6.27924l0,6.16296l33.71537,-0.46513c18.64393,-0.34885 97.68525,-1.16282 175.61017,-1.74423c195.48214,-1.62795 370.98067,-3.37218 475.58762,-4.65129c97.35033,-1.2791 93.6662,-0.93026 107.5096,-8.95373c16.52276,-9.53514 31.92912,-25.58209 65.86777,-68.95535c42.20003,-53.72238 59.05771,-71.39728 77.81328,-81.16499c3.68413,-1.9768 8.93122,-4.06988 11.72223,-4.76757c3.34921,-0.81398 59.72755,-1.39539 168.01863,-1.74423c154.51016,-0.46513 179.2943,-0.93026 228.30438,-4.18616c71.00322,-4.88385 114.65457,-13.83758 128.38633,-26.39606c2.12117,-1.9768 5.47037,-4.30244 7.25662,-5.34898c34.60849,-18.83772 187.66732,-200.81939 417.86959,-496.52506l27.01695,-34.6521l0,-9.88399c0,-5.34898 -0.11164,-9.76771 -0.33492,-9.76771c-0.11164,0 -10.27091,12.90733 -22.55134,28.72171z"/>
 </g>
</svg>